<svg xmlns="http://www.w3.org/2000/svg" xmlns:xlink="http://www.w3.org/1999/xlink" version="1.1" x="0px" y="0px" viewBox="0 0 100 100" style="enable-background:new 0 0 100 100;" xml:space="preserve"><path d="M50,94C25.7,94,6,74.3,6,50c0-7.7,2-15.3,5.9-22c0.8-1.4,2.7-1.9,4.1-1.1c1.4,0.8,1.9,2.7,1.1,4.1C13.8,36.8,12,43.3,12,50  c0,21,17,38,38,38s38-17,38-38S71,12,50,12c-1.7,0-3-1.3-3-3s1.3-3,3-3c24.3,0,44,19.7,44,44S74.3,94,50,94z M80.3,50  c0-16.7-13.6-30.3-30.3-30.3c-5.3,0-10.6,1.4-15.2,4.1c-1.4,0.8-1.9,2.7-1.1,4.1c0.8,1.4,2.7,1.9,4.1,1.1c3.7-2.1,7.9-3.3,12.2-3.3  c13.4,0,24.3,10.9,24.3,24.3S63.4,74.3,50,74.3c-13.4,0-24.3-10.9-24.3-24.3c0-1.7-1.3-3-3-3s-3,1.3-3,3c0,16.7,13.6,30.3,30.3,30.3  C66.7,80.3,80.3,66.7,80.3,50z M66.7,50c0-9.2-7.5-16.7-16.7-16.7c-5.9,0-11.4,3.2-14.4,8.3c-0.8,1.4-0.3,3.3,1.1,4.1  c1.4,0.8,3.3,0.3,4.1-1.1c1.9-3.3,5.4-5.3,9.2-5.3c5.9,0,10.7,4.8,10.7,10.7S55.9,60.7,50,60.7c-3.8,0-7.3-2-9.2-5.3  c-0.8-1.4-2.7-1.9-4.1-1.1c-1.4,0.8-1.9,2.7-1.1,4.1c3,5.1,8.5,8.3,14.4,8.3C59.2,66.7,66.7,59.2,66.7,50z"></path></svg>